<svg id="Capa_1" data-name="Capa 1" xmlns="http://www.w3.org/2000/svg" viewBox="0 0 500 500"><defs><style>.cls-1{fill:#d6b0a1;}</style></defs><path class="cls-1" d="M116.67,120.94V293.45h19.86s-.79-71.51,0-71.51h184v-101Zm185.15,70.94H136.53V149.32H301.82Z"/><polygon class="cls-1" points="384.46 266.23 384.46 238.42 186.59 238.42 186.59 338.31 369.37 338.31 369.76 382.59 190.97 382.59 190.57 410.4 389.63 410.4 389.63 312.21 204.08 313.35 204.08 266.23 384.46 266.23"/><polyline class="cls-1" points="116.67 293.48 116.67 410.4 190.57 410.4 190.97 382.59 136.53 382.59 136.53 293.48"/><path class="cls-1" d="M401.35,444.45v-40c2.29,1.33,10.58,5.73,16.69,0,4.58-4.28,5.82-12.19,6.56-18.73,4.1-35.89-4.24-48.87,0-78.33,3-21,10-33.31,11.92-36.6a63.51,63.51,0,0,1,10.72-13.62,63,63,0,0,1-19.67-29.81c-3.64-11.57-3.57-22.08-3.27-42.56.42-29.53,4-38.41,0-57-3.22-15.06-7.61-19-9.84-20.43-5.25-3.45-10.72-1.23-13.11,0V65.6c2.87-1,16.57-5.46,30.4,6,15.86,13.09,19.21,36.53,19.66,40l3,71.51v24.13c2.06,3.74,5.29,9.39,9.52,15.89,11.92,18.29,16.31,19.56,17.28,27.24,1.08,8.58-3.6,13.21-14.28,35.76-8.09,17-12.13,25.53-13.71,32.35-5.81,25.18,5.34,33.44.6,67.26-2.46,17.53-7.4,29.26-10.13,34.9-2.22,4.63-5,10.42-9.52,15.33C422.11,448.94,406.66,445.87,401.35,444.45Z"/><path class="cls-1" d="M100.38,444.25l-.36-40c-2.27,1.37-10.5,5.93-16.69.31-4.61-4.19-5.91-12.08-6.72-18.61-4.43-35.82,3.78-48.95-.71-78.32-3.2-21-10.26-33.13-12.24-36.38a63,63,0,0,0-10.85-13.43,63.77,63.77,0,0,0,19.4-30.15C75.75,216,75.58,205.51,75.1,185c-.69-29.52-4.32-38.34-.52-57,3.07-15.11,7.4-19.11,9.64-20.62,5.22-3.54,10.72-1.41,13.11-.24L97,65.46c-2.88-1-16.61-5.16-30.34,6.51-15.73,13.38-18.88,36.89-19.31,40.38L45,183.91,45.21,208c-2,3.79-5.21,9.48-9.39,16.06-11.77,18.53-16.14,19.86-17,27.56-1,8.6,3.7,13.14,14.62,35.49,8.24,16.87,12.36,25.31,14,32.1,6.06,25.07-5,33.53,0,67.26C50,404,55.08,415.63,57.84,421.24c2.26,4.57,5.12,10.34,9.68,15.15C79.66,449.12,95.08,445.77,100.38,444.25Z"/></svg>